<svg id="Layer_1" data-name="Layer 1" xmlns="http://www.w3.org/2000/svg" viewBox="0 0 500 500"><defs><style>.cls-1{fill:#e6e7e8;}.cls-2{fill:#414042;}.cls-3{fill:#f8995d;}.cls-4{fill:#f15a29;}</style></defs><circle class="cls-1" cx="250" cy="250" r="250"/><polygon class="cls-2" points="209.51 229.85 185.2 248.8 135.67 185.27 135.67 432.07 104.84 432.07 104.84 135.13 135.67 135.13 136 135.56 209.51 229.85"/><polygon class="cls-3" points="199.99 217.63 175.68 236.59 126.15 173.06 126.15 419.86 95.32 419.86 95.32 122.92 126.15 122.92 126.48 123.35 199.99 217.63"/><polygon class="cls-2" points="237.71 265.85 367.47 432.29 328.39 432.29 213.4 284.8 173.49 315.91 154.54 291.6 181.91 270.27 194.45 260.49 218.76 241.53 226.82 235.25 251.14 216.29 398.18 101.65 417.13 125.96 270.09 240.6 237.71 265.85"/><polygon class="cls-4" points="228.19 253.63 357.95 420.07 318.87 420.07 203.88 272.58 163.97 303.7 145.02 279.39 172.38 258.06 184.93 248.28 209.24 229.32 217.3 223.03 241.62 204.08 388.66 89.44 407.61 113.75 260.56 228.39 228.19 253.63"/></svg>