<svg id="Layer_1" data-name="Layer 1" xmlns="http://www.w3.org/2000/svg" viewBox="0 0 464.82 495.21"><defs><style>.cls-1{fill:#414042;}.cls-2{fill:#f8995d;}.cls-3{fill:#f15a29;}</style></defs><polygon class="cls-1" points="164.93 202.81 129.82 230.19 58.28 138.42 58.28 494.89 13.75 494.89 13.75 66.01 58.28 66.01 58.76 66.62 164.93 202.81"/><polygon class="cls-2" points="151.18 185.17 116.07 212.55 44.53 120.79 44.53 477.25 0 477.25 0 48.37 44.53 48.37 45.01 48.98 151.18 185.17"/><polygon class="cls-1" points="205.66 254.8 393.09 495.21 336.64 495.21 170.55 282.17 112.91 327.12 85.53 292 125.06 261.19 143.18 247.07 178.29 219.69 189.94 210.6 225.06 183.23 437.45 17.64 464.82 52.75 252.43 218.34 205.66 254.8"/><polygon class="cls-3" points="191.91 237.16 379.34 477.57 322.89 477.57 156.8 264.54 99.15 309.48 71.78 274.37 111.31 243.55 129.43 229.43 164.54 202.05 176.19 192.97 211.31 165.59 423.69 0 451.06 35.12 238.68 200.7 191.91 237.16"/></svg>