<svg id="Layer_1" data-name="Layer 1" xmlns="http://www.w3.org/2000/svg" viewBox="0 0 413.25 440.27"><defs><style>.cls-1{fill:#414042;}.cls-2{fill:#f8995d;}.cls-3{fill:#f15a29;}</style></defs><polygon class="cls-1" points="146.64 180.31 115.42 204.65 51.81 123.07 51.81 439.99 12.23 439.99 12.23 58.68 51.81 58.68 52.24 59.23 146.64 180.31"/><polygon class="cls-2" points="134.41 164.63 103.19 188.97 39.59 107.39 39.59 424.31 0 424.31 0 43 39.59 43 40.01 43.55 134.41 164.63"/><polygon class="cls-1" points="182.85 226.53 349.48 440.27 299.3 440.27 151.63 250.87 100.38 290.83 76.05 259.61 111.19 232.21 127.29 219.66 158.51 195.31 168.87 187.24 200.09 162.91 388.92 15.68 413.25 46.9 224.42 194.12 182.85 226.53"/><polygon class="cls-3" points="170.62 210.85 337.26 424.59 287.07 424.59 139.4 235.19 88.15 275.15 63.82 243.93 98.96 216.53 115.07 203.98 146.29 179.63 156.64 171.56 187.86 147.22 376.69 0 401.02 31.22 212.2 178.44 170.62 210.85"/></svg>